<svg width="1029" height="715" viewBox="0 0 1029 715" fill="none" xmlns="http://www.w3.org/2000/svg">
<rect width="1029" height="715" fill="#ECEFF1"/>
<circle cx="349.694" cy="336.694" r="108.628" transform="rotate(-92.1868 349.694 336.694)" fill="url(#paint0_linear_21_55)"/>
<path d="M425.175 355.25C414.375 355.25 405.125 352.9 397.425 348.2C389.725 343.45 383.8 336.85 379.65 328.4C375.55 319.95 373.5 310.15 373.5 299C373.5 287.85 375.55 278.05 379.65 269.6C383.8 261.15 389.725 254.575 397.425 249.875C405.125 245.125 414.375 242.75 425.175 242.75C437.625 242.75 448 245.875 456.3 252.125C464.6 258.325 470.425 266.7 473.775 277.25L455.55 282.275C453.45 275.225 449.875 269.725 444.825 265.775C439.775 261.775 433.225 259.775 425.175 259.775C417.925 259.775 411.875 261.4 407.025 264.65C402.225 267.9 398.6 272.475 396.15 278.375C393.75 284.225 392.525 291.1 392.475 299C392.475 306.9 393.675 313.8 396.075 319.7C398.525 325.55 402.175 330.1 407.025 333.35C411.875 336.6 417.925 338.225 425.175 338.225C433.225 338.225 439.775 336.225 444.825 332.225C449.875 328.225 453.45 322.725 455.55 315.725L473.775 320.75C470.425 331.3 464.6 339.7 456.3 345.95C448 352.15 437.625 355.25 425.175 355.25ZM535.917 355.25C525.117 355.25 515.867 352.9 508.167 348.2C500.467 343.45 494.542 336.85 490.392 328.4C486.292 319.95 484.242 310.15 484.242 299C484.242 287.85 486.292 278.05 490.392 269.6C494.542 261.15 500.467 254.575 508.167 249.875C515.867 245.125 525.117 242.75 535.917 242.75C546.717 242.75 555.967 245.125 563.667 249.875C571.417 254.575 577.342 261.15 581.442 269.6C585.592 278.05 587.667 287.85 587.667 299C587.667 310.15 585.592 319.95 581.442 328.4C577.342 336.85 571.417 343.45 563.667 348.2C555.967 352.9 546.717 355.25 535.917 355.25ZM535.917 338.225C543.167 338.275 549.192 336.675 553.992 333.425C558.842 330.175 562.467 325.6 564.867 319.7C567.317 313.8 568.542 306.9 568.542 299C568.542 291.1 567.317 284.25 564.867 278.45C562.467 272.6 558.842 268.05 553.992 264.8C549.192 261.55 543.167 259.875 535.917 259.775C528.667 259.725 522.642 261.325 517.842 264.575C513.042 267.825 509.417 272.4 506.967 278.3C504.567 284.2 503.367 291.1 503.367 299C503.367 306.9 504.567 313.775 506.967 319.625C509.367 325.425 512.967 329.95 517.767 333.2C522.617 336.45 528.667 338.125 535.917 338.225ZM604.096 353V245H622.171V336.05H669.871V353H604.096Z" fill="black"/>
<path d="M390.27 433.9C386.93 433.9 384.08 433.16 381.72 431.68C379.36 430.18 377.55 428.14 376.29 425.56C375.05 422.98 374.42 420.06 374.4 416.8C374.42 413.48 375.07 410.54 376.35 407.98C377.65 405.4 379.49 403.38 381.87 401.92C384.25 400.44 387.08 399.7 390.36 399.7C394.04 399.7 397.15 400.63 399.69 402.49C402.25 404.33 403.92 406.85 404.7 410.05L397.5 412C396.94 410.26 396.01 408.91 394.71 407.95C393.41 406.97 391.93 406.48 390.27 406.48C388.39 406.48 386.84 406.93 385.62 407.83C384.4 408.71 383.5 409.93 382.92 411.49C382.34 413.05 382.05 414.82 382.05 416.8C382.05 419.88 382.74 422.37 384.12 424.27C385.5 426.17 387.55 427.12 390.27 427.12C392.19 427.12 393.7 426.68 394.8 425.8C395.92 424.92 396.76 423.65 397.32 421.99L404.7 423.64C403.7 426.94 401.95 429.48 399.45 431.26C396.95 433.02 393.89 433.9 390.27 433.9ZM424.143 433.9C420.903 433.9 418.073 433.17 415.653 431.71C413.233 430.25 411.353 428.24 410.013 425.68C408.693 423.1 408.033 420.14 408.033 416.8C408.033 413.4 408.713 410.42 410.073 407.86C411.433 405.3 413.323 403.3 415.743 401.86C418.163 400.42 420.963 399.7 424.143 399.7C427.403 399.7 430.243 400.43 432.663 401.89C435.083 403.35 436.963 405.37 438.303 407.95C439.643 410.51 440.313 413.46 440.313 416.8C440.313 420.16 439.633 423.13 438.273 425.71C436.933 428.27 435.053 430.28 432.633 431.74C430.213 433.18 427.383 433.9 424.143 433.9ZM424.143 427.12C427.023 427.12 429.163 426.16 430.563 424.24C431.963 422.32 432.663 419.84 432.663 416.8C432.663 413.66 431.953 411.16 430.533 409.3C429.113 407.42 426.983 406.48 424.143 406.48C422.203 406.48 420.603 406.92 419.343 407.8C418.103 408.66 417.183 409.87 416.583 411.43C415.983 412.97 415.683 414.76 415.683 416.8C415.683 419.94 416.393 422.45 417.813 424.33C419.253 426.19 421.363 427.12 424.143 427.12ZM458.671 433.9C454.671 433.9 451.421 433 448.921 431.2C446.421 429.4 444.901 426.87 444.361 423.61L451.741 422.47C452.121 424.07 452.961 425.33 454.261 426.25C455.561 427.17 457.201 427.63 459.181 427.63C460.921 427.63 462.261 427.29 463.201 426.61C464.161 425.91 464.641 424.96 464.641 423.76C464.641 423.02 464.461 422.43 464.101 421.99C463.761 421.53 463.001 421.09 461.821 420.67C460.641 420.25 458.831 419.72 456.391 419.08C453.671 418.36 451.511 417.59 449.911 416.77C448.311 415.93 447.161 414.94 446.461 413.8C445.761 412.66 445.411 411.28 445.411 409.66C445.411 407.64 445.941 405.88 447.001 404.38C448.061 402.88 449.541 401.73 451.441 400.93C453.341 400.11 455.581 399.7 458.161 399.7C460.681 399.7 462.911 400.09 464.851 400.87C466.811 401.65 468.391 402.76 469.591 404.2C470.791 405.64 471.531 407.33 471.811 409.27L464.431 410.59C464.251 409.21 463.621 408.12 462.541 407.32C461.481 406.52 460.061 406.07 458.281 405.97C456.581 405.87 455.211 406.13 454.171 406.75C453.131 407.35 452.611 408.2 452.611 409.3C452.611 409.92 452.821 410.45 453.241 410.89C453.661 411.33 454.501 411.77 455.761 412.21C457.041 412.65 458.941 413.19 461.461 413.83C464.041 414.49 466.101 415.25 467.641 416.11C469.201 416.95 470.321 417.96 471.001 419.14C471.701 420.32 472.051 421.75 472.051 423.43C472.051 426.69 470.861 429.25 468.481 431.11C466.121 432.97 462.851 433.9 458.671 433.9ZM497.612 433C495.472 433.4 493.372 433.57 491.312 433.51C489.272 433.47 487.442 433.1 485.822 432.4C484.202 431.68 482.972 430.55 482.132 429.01C481.392 427.61 481.002 426.18 480.962 424.72C480.922 423.26 480.902 421.61 480.902 419.77V391.6H488.102V419.35C488.102 420.65 488.112 421.79 488.132 422.77C488.172 423.75 488.382 424.55 488.762 425.17C489.482 426.37 490.632 427.04 492.212 427.18C493.792 427.32 495.592 427.24 497.612 426.94V433ZM475.022 406.27V400.6H497.612V406.27H475.022ZM530.901 433.9C527.661 433.9 524.831 433.17 522.411 431.71C519.991 430.25 518.111 428.24 516.771 425.68C515.451 423.1 514.791 420.14 514.791 416.8C514.791 413.4 515.471 410.42 516.831 407.86C518.191 405.3 520.081 403.3 522.501 401.86C524.921 400.42 527.721 399.7 530.901 399.7C534.161 399.7 537.001 400.43 539.421 401.89C541.841 403.35 543.721 405.37 545.061 407.95C546.401 410.51 547.071 413.46 547.071 416.8C547.071 420.16 546.391 423.13 545.031 425.71C543.691 428.27 541.811 430.28 539.391 431.74C536.971 433.18 534.141 433.9 530.901 433.9ZM530.901 427.12C533.781 427.12 535.921 426.16 537.321 424.24C538.721 422.32 539.421 419.84 539.421 416.8C539.421 413.66 538.711 411.16 537.291 409.3C535.871 407.42 533.741 406.48 530.901 406.48C528.961 406.48 527.361 406.92 526.101 407.8C524.861 408.66 523.941 409.87 523.341 411.43C522.741 412.97 522.441 414.76 522.441 416.8C522.441 419.94 523.151 422.45 524.571 424.33C526.011 426.19 528.121 427.12 530.901 427.12ZM556.5 433V400.09C556.5 399.27 556.53 398.37 556.59 397.39C556.65 396.39 556.82 395.4 557.1 394.42C557.38 393.44 557.89 392.55 558.63 391.75C559.55 390.73 560.54 390.03 561.6 389.65C562.68 389.25 563.74 389.03 564.78 388.99C565.82 388.93 566.73 388.9 567.51 388.9H571.56V394.78H567.81C566.43 394.78 565.4 395.13 564.72 395.83C564.06 396.51 563.73 397.41 563.73 398.53V433H556.5ZM551.28 406.27V400.6H571.56V406.27H551.28ZM588.968 433V388.9H596.198V433H588.968ZM605.784 395.68V389.05H613.014V395.68H605.784ZM605.784 433V400.6H613.014V433H605.784ZM630.761 433L619.001 400.6H626.231L634.391 424.09L642.521 400.6H649.781L638.021 433H630.761ZM655.765 395.68V389.05H662.995V395.68H655.765ZM655.765 433V400.6H662.995V433H655.765ZM694.391 433V417.4C694.391 416.38 694.321 415.25 694.181 414.01C694.041 412.77 693.711 411.58 693.191 410.44C692.691 409.28 691.931 408.33 690.911 407.59C689.911 406.85 688.551 406.48 686.831 406.48C685.911 406.48 685.001 406.63 684.101 406.93C683.201 407.23 682.381 407.75 681.641 408.49C680.921 409.21 680.341 410.21 679.901 411.49C679.461 412.75 679.241 414.37 679.241 416.35L674.951 414.52C674.951 411.76 675.481 409.26 676.541 407.02C677.621 404.78 679.201 403 681.281 401.68C683.361 400.34 685.921 399.67 688.961 399.67C691.361 399.67 693.341 400.07 694.901 400.87C696.461 401.67 697.701 402.69 698.621 403.93C699.541 405.17 700.221 406.49 700.661 407.89C701.101 409.29 701.381 410.62 701.501 411.88C701.641 413.12 701.711 414.13 701.711 414.91V433H694.391ZM671.921 433V400.6H678.371V410.65H679.241V433H671.921ZM723.16 448.3C721.36 448.3 719.63 448.02 717.97 447.46C716.33 446.9 714.85 446.09 713.53 445.03C712.21 443.99 711.13 442.73 710.29 441.25L716.95 437.95C717.57 439.13 718.44 440 719.56 440.56C720.7 441.14 721.91 441.43 723.19 441.43C724.69 441.43 726.03 441.16 727.21 440.62C728.39 440.1 729.3 439.32 729.94 438.28C730.6 437.26 730.91 435.98 730.87 434.44V425.23H731.77V400.6H738.1V434.56C738.1 435.38 738.06 436.16 737.98 436.9C737.92 437.66 737.81 438.4 737.65 439.12C737.17 441.22 736.25 442.94 734.89 444.28C733.53 445.64 731.84 446.65 729.82 447.31C727.82 447.97 725.6 448.3 723.16 448.3ZM722.53 433.9C719.55 433.9 716.95 433.15 714.73 431.65C712.51 430.15 710.79 428.11 709.57 425.53C708.35 422.95 707.74 420.04 707.74 416.8C707.74 413.52 708.35 410.6 709.57 408.04C710.81 405.46 712.56 403.43 714.82 401.95C717.08 400.45 719.74 399.7 722.8 399.7C725.88 399.7 728.46 400.45 730.54 401.95C732.64 403.43 734.23 405.46 735.31 408.04C736.39 410.62 736.93 413.54 736.93 416.8C736.93 420.02 736.39 422.93 735.31 425.53C734.23 428.11 732.62 430.15 730.48 431.65C728.34 433.15 725.69 433.9 722.53 433.9ZM723.64 427.42C725.58 427.42 727.14 426.98 728.32 426.1C729.52 425.2 730.39 423.95 730.93 422.35C731.49 420.75 731.77 418.9 731.77 416.8C731.77 414.68 731.49 412.83 730.93 411.25C730.39 409.65 729.54 408.41 728.38 407.53C727.22 406.63 725.72 406.18 723.88 406.18C721.94 406.18 720.34 406.66 719.08 407.62C717.82 408.56 716.89 409.84 716.29 411.46C715.69 413.06 715.39 414.84 715.39 416.8C715.39 418.78 715.68 420.58 716.26 422.2C716.86 423.8 717.77 425.07 718.99 426.01C720.21 426.95 721.76 427.42 723.64 427.42Z" fill="black"/>
<defs>
<linearGradient id="paint0_linear_21_55" x1="442.48" y1="299.353" x2="272.749" y2="401.191" gradientUnits="userSpaceOnUse">
<stop stop-color="#FFCC00"/>
<stop offset="0.612103" stop-color="#FFCC00"/>
<stop offset="0.65377" stop-color="#E7A457"/>
</linearGradient>
</defs>
</svg>
