<svg width="1464" height="1017" viewBox="0 0 1464 1017" fill="none" xmlns="http://www.w3.org/2000/svg">
<rect width="1464" height="1017" fill="#ECEFF1"/>
<rect width="1464" height="1017" fill="#ECEFF1"/>
<circle cx="627.694" cy="512.694" r="108.628" transform="rotate(-92.1868 627.694 512.694)" fill="url(#paint0_linear_19_54)"/>
<path d="M703.175 531.25C692.375 531.25 683.125 528.9 675.425 524.2C667.725 519.45 661.8 512.85 657.65 504.4C653.55 495.95 651.5 486.15 651.5 475C651.5 463.85 653.55 454.05 657.65 445.6C661.8 437.15 667.725 430.575 675.425 425.875C683.125 421.125 692.375 418.75 703.175 418.75C715.625 418.75 726 421.875 734.3 428.125C742.6 434.325 748.425 442.7 751.775 453.25L733.55 458.275C731.45 451.225 727.875 445.725 722.825 441.775C717.775 437.775 711.225 435.775 703.175 435.775C695.925 435.775 689.875 437.4 685.025 440.65C680.225 443.9 676.6 448.475 674.15 454.375C671.75 460.225 670.525 467.1 670.475 475C670.475 482.9 671.675 489.8 674.075 495.7C676.525 501.55 680.175 506.1 685.025 509.35C689.875 512.6 695.925 514.225 703.175 514.225C711.225 514.225 717.775 512.225 722.825 508.225C727.875 504.225 731.45 498.725 733.55 491.725L751.775 496.75C748.425 507.3 742.6 515.7 734.3 521.95C726 528.15 715.625 531.25 703.175 531.25ZM813.917 531.25C803.117 531.25 793.867 528.9 786.167 524.2C778.467 519.45 772.542 512.85 768.392 504.4C764.292 495.95 762.242 486.15 762.242 475C762.242 463.85 764.292 454.05 768.392 445.6C772.542 437.15 778.467 430.575 786.167 425.875C793.867 421.125 803.117 418.75 813.917 418.75C824.717 418.75 833.967 421.125 841.667 425.875C849.417 430.575 855.342 437.15 859.442 445.6C863.592 454.05 865.667 463.85 865.667 475C865.667 486.15 863.592 495.95 859.442 504.4C855.342 512.85 849.417 519.45 841.667 524.2C833.967 528.9 824.717 531.25 813.917 531.25ZM813.917 514.225C821.167 514.275 827.192 512.675 831.992 509.425C836.842 506.175 840.467 501.6 842.867 495.7C845.317 489.8 846.542 482.9 846.542 475C846.542 467.1 845.317 460.25 842.867 454.45C840.467 448.6 836.842 444.05 831.992 440.8C827.192 437.55 821.167 435.875 813.917 435.775C806.667 435.725 800.642 437.325 795.842 440.575C791.042 443.825 787.417 448.4 784.967 454.3C782.567 460.2 781.367 467.1 781.367 475C781.367 482.9 782.567 489.775 784.967 495.625C787.367 501.425 790.967 505.95 795.767 509.2C800.617 512.45 806.667 514.125 813.917 514.225ZM882.096 529V421H900.171V512.05H947.871V529H882.096Z" fill="black"/>
<path d="M668.27 609.9C664.93 609.9 662.08 609.16 659.72 607.68C657.36 606.18 655.55 604.14 654.29 601.56C653.05 598.98 652.42 596.06 652.4 592.8C652.42 589.48 653.07 586.54 654.35 583.98C655.65 581.4 657.49 579.38 659.87 577.92C662.25 576.44 665.08 575.7 668.36 575.7C672.04 575.7 675.15 576.63 677.69 578.49C680.25 580.33 681.92 582.85 682.7 586.05L675.5 588C674.94 586.26 674.01 584.91 672.71 583.95C671.41 582.97 669.93 582.48 668.27 582.48C666.39 582.48 664.84 582.93 663.62 583.83C662.4 584.71 661.5 585.93 660.92 587.49C660.34 589.05 660.05 590.82 660.05 592.8C660.05 595.88 660.74 598.37 662.12 600.27C663.5 602.17 665.55 603.12 668.27 603.12C670.19 603.12 671.7 602.68 672.8 601.8C673.92 600.92 674.76 599.65 675.32 597.99L682.7 599.64C681.7 602.94 679.95 605.48 677.45 607.26C674.95 609.02 671.89 609.9 668.27 609.9ZM702.143 609.9C698.903 609.9 696.073 609.17 693.653 607.71C691.233 606.25 689.353 604.24 688.013 601.68C686.693 599.1 686.033 596.14 686.033 592.8C686.033 589.4 686.713 586.42 688.073 583.86C689.433 581.3 691.323 579.3 693.743 577.86C696.163 576.42 698.963 575.7 702.143 575.7C705.403 575.7 708.243 576.43 710.663 577.89C713.083 579.35 714.963 581.37 716.303 583.95C717.643 586.51 718.313 589.46 718.313 592.8C718.313 596.16 717.633 599.13 716.273 601.71C714.933 604.27 713.053 606.28 710.633 607.74C708.213 609.18 705.383 609.9 702.143 609.9ZM702.143 603.12C705.023 603.12 707.163 602.16 708.563 600.24C709.963 598.32 710.663 595.84 710.663 592.8C710.663 589.66 709.953 587.16 708.533 585.3C707.113 583.42 704.983 582.48 702.143 582.48C700.203 582.48 698.603 582.92 697.343 583.8C696.103 584.66 695.183 585.87 694.583 587.43C693.983 588.97 693.683 590.76 693.683 592.8C693.683 595.94 694.393 598.45 695.813 600.33C697.253 602.19 699.363 603.12 702.143 603.12ZM736.671 609.9C732.671 609.9 729.421 609 726.921 607.2C724.421 605.4 722.901 602.87 722.361 599.61L729.741 598.47C730.121 600.07 730.961 601.33 732.261 602.25C733.561 603.17 735.201 603.63 737.181 603.63C738.921 603.63 740.261 603.29 741.201 602.61C742.161 601.91 742.641 600.96 742.641 599.76C742.641 599.02 742.461 598.43 742.101 597.99C741.761 597.53 741.001 597.09 739.821 596.67C738.641 596.25 736.831 595.72 734.391 595.08C731.671 594.36 729.511 593.59 727.911 592.77C726.311 591.93 725.161 590.94 724.461 589.8C723.761 588.66 723.411 587.28 723.411 585.66C723.411 583.64 723.941 581.88 725.001 580.38C726.061 578.88 727.541 577.73 729.441 576.93C731.341 576.11 733.581 575.7 736.161 575.7C738.681 575.7 740.911 576.09 742.851 576.87C744.811 577.65 746.391 578.76 747.591 580.2C748.791 581.64 749.531 583.33 749.811 585.27L742.431 586.59C742.251 585.21 741.621 584.12 740.541 583.32C739.481 582.52 738.061 582.07 736.281 581.97C734.581 581.87 733.211 582.13 732.171 582.75C731.131 583.35 730.611 584.2 730.611 585.3C730.611 585.92 730.821 586.45 731.241 586.89C731.661 587.33 732.501 587.77 733.761 588.21C735.041 588.65 736.941 589.19 739.461 589.83C742.041 590.49 744.101 591.25 745.641 592.11C747.201 592.95 748.321 593.96 749.001 595.14C749.701 596.32 750.051 597.75 750.051 599.43C750.051 602.69 748.861 605.25 746.481 607.11C744.121 608.97 740.851 609.9 736.671 609.9ZM775.612 609C773.472 609.4 771.372 609.57 769.312 609.51C767.272 609.47 765.442 609.1 763.822 608.4C762.202 607.68 760.972 606.55 760.132 605.01C759.392 603.61 759.002 602.18 758.962 600.72C758.922 599.26 758.902 597.61 758.902 595.77V567.6H766.102V595.35C766.102 596.65 766.112 597.79 766.132 598.77C766.172 599.75 766.382 600.55 766.762 601.17C767.482 602.37 768.632 603.04 770.212 603.18C771.792 603.32 773.592 603.24 775.612 602.94V609ZM753.022 582.27V576.6H775.612V582.27H753.022ZM808.901 609.9C805.661 609.9 802.831 609.17 800.411 607.71C797.991 606.25 796.111 604.24 794.771 601.68C793.451 599.1 792.791 596.14 792.791 592.8C792.791 589.4 793.471 586.42 794.831 583.86C796.191 581.3 798.081 579.3 800.501 577.86C802.921 576.42 805.721 575.7 808.901 575.7C812.161 575.7 815.001 576.43 817.421 577.89C819.841 579.35 821.721 581.37 823.061 583.95C824.401 586.51 825.071 589.46 825.071 592.8C825.071 596.16 824.391 599.13 823.031 601.71C821.691 604.27 819.811 606.28 817.391 607.74C814.971 609.18 812.141 609.9 808.901 609.9ZM808.901 603.12C811.781 603.12 813.921 602.16 815.321 600.24C816.721 598.32 817.421 595.84 817.421 592.8C817.421 589.66 816.711 587.16 815.291 585.3C813.871 583.42 811.741 582.48 808.901 582.48C806.961 582.48 805.361 582.92 804.101 583.8C802.861 584.66 801.941 585.87 801.341 587.43C800.741 588.97 800.441 590.76 800.441 592.8C800.441 595.94 801.151 598.45 802.571 600.33C804.011 602.19 806.121 603.12 808.901 603.12ZM834.5 609V576.09C834.5 575.27 834.53 574.37 834.59 573.39C834.65 572.39 834.82 571.4 835.1 570.42C835.38 569.44 835.89 568.55 836.63 567.75C837.55 566.73 838.54 566.03 839.6 565.65C840.68 565.25 841.74 565.03 842.78 564.99C843.82 564.93 844.73 564.9 845.51 564.9H849.56V570.78H845.81C844.43 570.78 843.4 571.13 842.72 571.83C842.06 572.51 841.73 573.41 841.73 574.53V609H834.5ZM829.28 582.27V576.6H849.56V582.27H829.28ZM866.968 609V564.9H874.198V609H866.968ZM883.784 571.68V565.05H891.014V571.68H883.784ZM883.784 609V576.6H891.014V609H883.784ZM908.761 609L897.001 576.6H904.231L912.391 600.09L920.521 576.6H927.781L916.021 609H908.761ZM933.765 571.68V565.05H940.995V571.68H933.765ZM933.765 609V576.6H940.995V609H933.765ZM972.391 609V593.4C972.391 592.38 972.321 591.25 972.181 590.01C972.041 588.77 971.711 587.58 971.191 586.44C970.691 585.28 969.931 584.33 968.911 583.59C967.911 582.85 966.551 582.48 964.831 582.48C963.911 582.48 963.001 582.63 962.101 582.93C961.201 583.23 960.381 583.75 959.641 584.49C958.921 585.21 958.341 586.21 957.901 587.49C957.461 588.75 957.241 590.37 957.241 592.35L952.951 590.52C952.951 587.76 953.481 585.26 954.541 583.02C955.621 580.78 957.201 579 959.281 577.68C961.361 576.34 963.921 575.67 966.961 575.67C969.361 575.67 971.341 576.07 972.901 576.87C974.461 577.67 975.701 578.69 976.621 579.93C977.541 581.17 978.221 582.49 978.661 583.89C979.101 585.29 979.381 586.62 979.501 587.88C979.641 589.12 979.711 590.13 979.711 590.91V609H972.391ZM949.921 609V576.6H956.371V586.65H957.241V609H949.921ZM1001.16 624.3C999.36 624.3 997.63 624.02 995.97 623.46C994.33 622.9 992.85 622.09 991.53 621.03C990.21 619.99 989.13 618.73 988.29 617.25L994.95 613.95C995.57 615.13 996.44 616 997.56 616.56C998.7 617.14 999.91 617.43 1001.19 617.43C1002.69 617.43 1004.03 617.16 1005.21 616.62C1006.39 616.1 1007.3 615.32 1007.94 614.28C1008.6 613.26 1008.91 611.98 1008.87 610.44V601.23H1009.77V576.6H1016.1V610.56C1016.1 611.38 1016.06 612.16 1015.98 612.9C1015.92 613.66 1015.81 614.4 1015.65 615.12C1015.17 617.22 1014.25 618.94 1012.89 620.28C1011.53 621.64 1009.84 622.65 1007.82 623.31C1005.82 623.97 1003.6 624.3 1001.16 624.3ZM1000.53 609.9C997.55 609.9 994.95 609.15 992.73 607.65C990.51 606.15 988.79 604.11 987.57 601.53C986.35 598.95 985.74 596.04 985.74 592.8C985.74 589.52 986.35 586.6 987.57 584.04C988.81 581.46 990.56 579.43 992.82 577.95C995.08 576.45 997.74 575.7 1000.8 575.7C1003.88 575.7 1006.46 576.45 1008.54 577.95C1010.64 579.43 1012.23 581.46 1013.31 584.04C1014.39 586.62 1014.93 589.54 1014.93 592.8C1014.93 596.02 1014.39 598.93 1013.31 601.53C1012.23 604.11 1010.62 606.15 1008.48 607.65C1006.34 609.15 1003.69 609.9 1000.53 609.9ZM1001.64 603.42C1003.58 603.42 1005.14 602.98 1006.32 602.1C1007.52 601.2 1008.39 599.95 1008.93 598.35C1009.49 596.75 1009.77 594.9 1009.77 592.8C1009.77 590.68 1009.49 588.83 1008.93 587.25C1008.39 585.65 1007.54 584.41 1006.38 583.53C1005.22 582.63 1003.72 582.18 1001.88 582.18C999.94 582.18 998.34 582.66 997.08 583.62C995.82 584.56 994.89 585.84 994.29 587.46C993.69 589.06 993.39 590.84 993.39 592.8C993.39 594.78 993.68 596.58 994.26 598.2C994.86 599.8 995.77 601.07 996.99 602.01C998.21 602.95 999.76 603.42 1001.64 603.42Z" fill="black"/>
<defs>
<linearGradient id="paint0_linear_19_54" x1="720.48" y1="475.353" x2="550.749" y2="577.191" gradientUnits="userSpaceOnUse">
<stop stop-color="#FFCC00"/>
<stop offset="0.612103" stop-color="#FFCC00"/>
<stop offset="0.65377" stop-color="#E7A457"/>
</linearGradient>
</defs>
</svg>
